<svg xmlns="http://www.w3.org/2000/svg" viewBox="0 0 32 32" width="32px" height="32px">
  <path
    d="M 25.191406 3.0625 L 22.71875 3.992188 C 21.433594 4.472656 20.367188 5.390625 19.683594 6.570313 C 19.679688 6.570313 19.679688 6.570313 19.679688 6.570313 C 19.664063 6.597656 19.648438 6.617188 19.632813 6.644531 L 19.632813 6.648438 C 19.628906 6.648438 19.628906 6.652344 19.625 6.65625 L 18.988281 7.769531 L 18.65625 8.347656 L 17.800781 9.847656 L 17.800781 9.851563 C 17.785156 9.851563 17.773438 9.851563 17.761719 9.855469 C 17.503906 9.898438 17.230469 9.933594 16.949219 9.960938 C 16.941406 9.960938 16.933594 9.960938 16.925781 9.960938 C 16.925781 9.960938 16.921875 9.960938 16.921875 9.960938 C 16.625 9.984375 16.316406 10 16 10 C 15.683594 10 15.375 9.984375 15.078125 9.960938 C 15.074219 9.960938 15.074219 9.960938 15.074219 9.960938 C 15.066406 9.960938 15.058594 9.960938 15.050781 9.960938 C 14.769531 9.933594 14.5 9.898438 14.246094 9.859375 C 14.214844 9.851563 14.1875 9.84375 14.15625 9.839844 C 13.949219 9.804688 13.757813 9.761719 13.574219 9.714844 C 13.503906 9.699219 13.4375 9.679688 13.375 9.664063 C 13.285156 9.636719 13.207031 9.609375 13.125 9.578125 C 12.890625 9.5 12.695313 9.421875 12.535156 9.339844 C 12.488281 9.316406 12.429688 9.292969 12.390625 9.269531 C 12.21875 9.171875 12.085938 9.078125 12.027344 9 C 12.027344 9 12.03125 8.996094 12.03125 9 C 12.03125 9 12.035156 8.992188 12.035156 8.992188 C 12 9.035156 11.972656 9.066406 12.0625 8.972656 C 12.070313 8.964844 12.058594 8.980469 12.070313 8.96875 L 12.066406 8.96875 C 12.378906 8.632813 13.71875 8 16 8 C 16.195313 8 16.371094 8.011719 16.554688 8.019531 L 17.640625 6.101563 C 17.101563 6.035156 16.546875 6 16 6 C 13.714844 6 11.300781 6.589844 10.386719 7.851563 C 10.140625 8.144531 9.742188 8.640625 9.257813 9.332031 C 8.96875 9.742188 8.683594 10.175781 8.453125 10.601563 C 8.351563 10.789063 8.257813 10.964844 8.179688 11.152344 C 6.234375 13.5625 5 16.707031 5 20 C 5 24.953125 10.023438 29 16 29 C 21.964844 29 27 25.023438 27 20 C 27 16.707031 25.765625 13.5625 23.820313 11.152344 C 23.738281 10.960938 23.644531 10.785156 23.542969 10.59375 C 23.308594 10.164063 23.019531 9.71875 22.722656 9.300781 C 22.429688 8.882813 22.132813 8.496094 21.890625 8.1875 C 21.789063 8.058594 21.730469 8.003906 21.660156 7.914063 C 21.582031 7.800781 21.496094 7.695313 21.394531 7.59375 C 21.847656 6.796875 22.5625 6.1875 23.417969 5.867188 L 23.421875 5.867188 L 25.894531 4.9375 Z M 21.191406 10.609375 C 21.417969 10.9375 21.636719 11.273438 21.785156 11.546875 C 21.898438 11.753906 21.949219 11.941406 21.976563 12.011719 C 21.980469 12.019531 21.988281 12.039063 21.988281 12.046875 C 21.976563 12.140625 21.9375 12.265625 21.738281 12.464844 C 21.511719 12.695313 21.105469 12.96875 20.558594 13.203125 C 19.734375 13.554688 18.605469 13.828125 17.324219 13.941406 C 16.898438 13.980469 16.453125 14 16 14 C 14.183594 14 12.539063 13.671875 11.441406 13.203125 C 10.894531 12.96875 10.488281 12.695313 10.261719 12.464844 C 10.148438 12.351563 10.085938 12.257813 10.046875 12.183594 C 10.019531 12.128906 10.015625 12.085938 10.011719 12.046875 C 10.011719 12.046875 10.011719 12.042969 10.011719 12.042969 C 10.015625 12.035156 10.023438 12.003906 10.035156 11.96875 C 10.039063 11.964844 10.039063 11.960938 10.042969 11.957031 C 10.074219 11.863281 10.125 11.710938 10.210938 11.550781 C 10.359375 11.277344 10.582031 10.941406 10.8125 10.609375 C 10.980469 10.753906 11.191406 10.878906 11.402344 11 C 11.425781 11.011719 11.453125 11.023438 11.480469 11.039063 C 11.65625 11.136719 11.835938 11.234375 12.035156 11.316406 C 12.058594 11.324219 12.074219 11.335938 12.09375 11.34375 C 12.242188 11.402344 12.410156 11.449219 12.570313 11.5 C 12.671875 11.535156 12.765625 11.574219 12.875 11.605469 C 13.789063 11.863281 14.851563 12 16 12 C 17.148438 12 18.210938 11.863281 19.125 11.605469 C 19.234375 11.574219 19.328125 11.535156 19.429688 11.5 C 19.589844 11.449219 19.757813 11.402344 19.90625 11.34375 C 19.925781 11.335938 19.941406 11.324219 19.964844 11.316406 C 20.164063 11.234375 20.34375 11.136719 20.519531 11.039063 C 20.546875 11.023438 20.574219 11.011719 20.597656 11 C 20.808594 10.875 21.019531 10.753906 21.191406 10.609375 Z M 8.867188 13.894531 C 9.105469 14.132813 9.375 14.34375 9.675781 14.53125 C 9.976563 14.722656 10.304688 14.890625 10.65625 15.042969 C 12.09375 15.65625 13.953125 16 16 16 C 18.046875 16 19.90625 15.65625 21.34375 15.042969 C 21.695313 14.890625 22.023438 14.722656 22.324219 14.53125 C 22.625 14.34375 22.894531 14.132813 23.136719 13.894531 C 24.210938 15.726563 25 17.792969 25 20 C 25 23.644531 21.082031 27 16 27 C 10.929688 27 7 23.546875 7 20 C 7 17.796875 7.789063 15.726563 8.867188 13.894531 Z"
  />
</svg>
